PathFileType	4	(X/Y/Z)	Kaydara	
DataRate	CameraRate	NumFrames	NumMarkers	Units	OrigDataRate	OrigDataStartFrame	OrigNumFrames	
60.00	60.00	4	74	mm	60.00	773	204	
Frame#	Time	Z_lasi			Z_rasi			Z_rpsi			Z_lpsi			Z_fneck			Z_bneck			Z_fhead			Z_rhead			Z_lhead			Z_rshld			Z_relbtop			Z_relbext			Z_relblow			Z_rwrext			Z_rwrtop			Z_rwrlow			Z_lshld			Z_lelbext			Z_lelblow			Z_lelbtop			Z_lwrext			Z_lwrtop			Z_lwrlow			Z_rtopleg			Z_ltopleg			Z_rkneefr			Z_rkneebk			Z_rkneeis			Z_lkneefr			Z_lknssbk			Z_lkneeis			Z_rankfr			Z_rankis			Z_rankbk			Z_lankfr			Z_lankbk			Z_lankis			N_lasi			N_rasi			N_rpsi			N_lpsi			N_fneck			N_bneck			N_fhead			N_rhead			N_lhead			N_rshld			N_relbtop			N_relbext			N_relblow			N_rwrext			N_rwrtop			N_rwrlow			N_lshld			N_lelbext			N_lelblow			N_lelbtop			N_lwrext			N_lwrtop			N_lwrlow			N_rtopleg			N_ltopleg			N_rkneefr			N_rkneebk			N_rkneeis			N_lkneefr			N_lknssbk			N_lkneeis			N_rankfr			N_rankis			N_rankbk			N_lankfr			N_lankbk			N_lankis			
		X1	Y1	Z1	X2	Y2	Z2	X3	Y3	Z3	X4	Y4	Z4	X5	Y5	Z5	X6	Y6	Z6	X7	Y7	Z7	X8	Y8	Z8	X9	Y9	Z9	X10	Y10	Z10	X11	Y11	Z11	X12	Y12	Z12	X13	Y13	Z13	X14	Y14	Z14	X15	Y15	Z15	X16	Y16	Z16	X17	Y17	Z17	X18	Y18	Z18	X19	Y19	Z19	X20	Y20	Z20	X21	Y21	Z21	X22	Y22	Z22	X23	Y23	Z23	X24	Y24	Z24	X25	Y25	Z25	X26	Y26	Z26	X27	Y27	Z27	X28	Y28	Z28	X29	Y29	Z29	X30	Y30	Z30	X31	Y31	Z31	X32	Y32	Z32	X33	Y33	Z33	X34	Y34	Z34	X35	Y35	Z35	X36	Y36	Z36	X37	Y37	Z37	X38	Y38	Z38	X39	Y39	Z39	X40	Y40	Z40	X41	Y41	Z41	X42	Y42	Z42	X43	Y43	Z43	X44	Y44	Z44	X45	Y45	Z45	X46	Y46	Z46	X47	Y47	Z47	X48	Y48	Z48	X49	Y49	Z49	X50	Y50	Z50	X51	Y51	Z51	X52	Y52	Z52	X53	Y53	Z53	X54	Y54	Z54	X55	Y55	Z55	X56	Y56	Z56	X57	Y57	Z57	X58	Y58	Z58	X59	Y59	Z59	X60	Y60	Z60	X61	Y61	Z61	X62	Y62	Z62	X63	Y63	Z63	X64	Y64	Z64	X65	Y65	Z65	X66	Y66	Z66	X67	Y67	Z67	X68	Y68	Z68	X69	Y69	Z69	X70	Y70	Z70	X71	Y71	Z71	X72	Y72	Z72	X73	Y73	Z73	X74	Y74	Z74	

77	12.867	-1268.02330	1004.66179	677.44904	-1388.88641	1005.46410	884.31190	-1539.73831	1078.76671	761.90674	-1437.87033	1069.20441	598.80188	-1256.50719	1455.90485	764.09485	-1347.54578	1533.23212	774.11751	-1129.21989	1582.86972	755.46608	-1268.33916	1629.64752	879.75227	-1305.17395	1644.26178	754.59106	-1449.89120	1401.18912	967.60254	-1551.42746	1113.62709	987.54425	-1511.49796	1099.24728	930.78606	-1476.26389	1129.13887	1023.02094	-1480.94345	862.98637	1040.22987	-1446.39832	873.13103	1068.76816	-1414.33228	883.74794	1036.23421	-1274.31602	1427.34756	568.05912	-1349.72992	1106.28174	567.92206	-1284.08661	1126.90674	506.68777	-1363.39355	1107.94586	494.50939	-1284.55444	895.51720	487.72278	-1244.26430	904.06372	499.15707	-1252.63206	902.30469	544.18968	-1527.43729	911.97304	863.88000	-1296.78482	932.11464	594.44965	-1506.54556	439.80827	821.38306	-1588.40424	480.74448	810.18738	-1503.34976	467.58358	728.21434	-1189.13376	455.59170	771.17256	-1218.38058	467.75780	688.89282	-1297.91122	471.66973	780.98351	-1576.96930	187.44495	781.14334	-1581.45630	193.03988	700.40741	-1641.27747	193.19521	738.32130	-1262.54753	188.07575	724.62158	-1321.94214	194.21124	753.58940	-1263.55453	202.22635	799.54987	335.27477	1017.86873	-345.19012	533.45989	1034.28398	-450.23090	627.94205	1094.74396	-222.69041	402.76989	1070.08492	-143.45612	426.06899	1503.06351	-396.81389	483.79692	1574.96964	-281.64413	336.55525	1710.94284	-456.96754	509.72172	1702.72644	-415.44685	403.23643	1713.19031	-299.43439	676.68427	1478.37265	-368.69209	793.83575	1194.35814	-300.31769	712.82578	1171.13724	-272.31937	753.05267	1191.42288	-357.97726	808.28613	952.73193	-396.98196	819.08524	973.36105	-444.85207	776.22169	979.65424	-461.67809	253.88659	1480.35492	-247.22351	170.14500	1146.32607	-313.13755	273.02658	1193.95271	-285.42217	199.51279	1195.86670	-263.81691	255.59914	1047.51495	-456.90319	258.84405	1092.81677	-485.61359	307.55476	1098.80455	-475.76385	691.86279	926.23177	-380.83126	322.00832	874.03397	-217.81382	613.06694	512.02232	-555.55378	666.47339	552.39178	-457.77451	561.03130	505.96149	-453.69518	533.17345	463.24123	-311.66428	473.30662	477.33997	-220.23439	599.13593	499.95903	-224.70201	715.67337	225.12819	-479.55734	679.45183	225.86599	-416.47682	758.55186	238.83741	-429.00745	592.86160	148.68558	-251.17098	649.01543	174.21101	-177.31886	659.44359	176.27298	-248.20192 
78	12.883	-1259.77898	1000.56450	684.91982	-1378.38623	1002.96196	893.12271	-1530.57236	1076.07651	772.28485	-1430.81970	1065.58807	607.93652	-1244.39957	1451.95038	770.66277	-1335.30518	1529.37851	781.63391	-1117.16499	1579.39102	761.18164	-1255.54474	1625.42023	886.62247	-1292.95532	1640.29694	761.78513	-1434.55688	1397.59567	976.99791	-1534.54285	1109.57382	998.94897	-1495.08408	1095.08484	941.88965	-1458.99490	1125.58418	1033.51952	-1463.42148	859.33647	1051.86295	-1428.77258	869.62990	1080.22827	-1396.98822	880.07240	1047.46490	-1265.10910	1423.21732	574.71313	-1342.34619	1102.21359	575.96848	-1277.16827	1122.49603	513.95790	-1356.83487	1104.47273	502.55741	-1280.08240	891.14563	494.57680	-1239.83910	899.20990	505.56141	-1248.18001	897.17613	550.63713	-1518.32001	909.50539	874.22325	-1290.07568	927.85294	603.06267	-1500.58487	437.56786	825.60013	-1582.16736	479.25762	814.82819	-1497.43546	466.54346	732.72301	-1183.58986	451.09562	781.03302	-1214.23409	459.25350	699.18694	-1293.26340	462.93442	790.54436	-1573.48953	186.19287	781.56212	-1578.28842	192.93304	701.29547	-1638.13141	193.23635	739.07364	-1236.18134	180.11301	744.78851	-1294.97101	182.96186	775.30731	-1235.68756	197.21380	819.02252	328.62888	1016.97563	-353.52493	522.47776	1033.05519	-465.91324	625.71850	1094.55910	-238.67010	403.06210	1069.05327	-154.27402	418.41553	1500.27466	-411.35136	479.79485	1573.28308	-298.62511	328.06995	1708.12500	-471.28616	502.13230	1700.02182	-433.35594	398.26992	1710.93063	-315.17311	669.37691	1474.97375	-390.84965	789.43695	1191.84097	-322.13970	709.09752	1168.93608	-291.98305	746.62392	1188.83652	-379.59831	798.58871	950.77621	-421.73412	808.18062	971.50047	-469.34967	764.95628	978.40866	-484.93267	250.71110	1480.76447	-257.37402	164.26357	1148.12378	-323.71201	266.38304	1195.33173	-297.75269	193.68492	1197.60017	-273.98746	249.25642	1059.45763	-474.10278	250.56330	1106.05171	-500.85045	299.44458	1113.27888	-491.71837	683.01125	924.93683	-402.65644	320.27954	873.31230	-223.10631	592.80064	513.94283	-579.99668	653.78914	548.97408	-484.80751	547.23007	504.65000	-474.73625	530.21313	462.50862	-313.26857	471.89861	477.67944	-221.45260	598.21445	501.16646	-230.14427	691.71837	221.57162	-527.50057	660.58640	219.70596	-461.83308	738.70438	231.29776	-479.78985	591.41502	149.18639	-251.75812	649.03130	175.78695	-178.60321	658.40607	177.17522	-249.66623 
79	12.900	-1250.84229	996.05888	692.75558	-1367.77573	999.84436	901.97556	-1520.93506	1072.78824	782.11586	-1422.63901	1061.43433	616.95274	-1231.72058	1447.55600	776.73569	-1322.55295	1525.08408	788.57422	-1104.66553	1575.56152	766.18256	-1242.14127	1621.00647	892.84386	-1281.27640	1635.86823	768.44666	-1418.83286	1393.80188	985.74722	-1516.93207	1105.24918	1009.67659	-1478.07953	1090.47012	952.31583	-1441.28815	1121.60828	1043.55125	-1445.81802	855.21652	1062.76443	-1410.93292	865.54512	1090.86853	-1379.24835	876.06674	1057.94785	-1255.36240	1418.42865	581.01372	-1334.15619	1097.70767	583.55347	-1269.27711	1117.34947	520.95497	-1349.34708	1100.13367	510.18700	-1274.90646	886.18538	500.95284	-1234.52774	893.67355	511.84635	-1242.52319	892.07809	556.85463	-1508.39203	906.85875	884.52499	-1282.96005	922.90215	611.52344	-1494.71634	435.23209	829.61517	-1576.06598	477.91103	819.40491	-1491.50574	465.14935	736.77719	-1177.28897	445.89661	791.25015	-1208.95935	450.33531	709.90227	-1287.39960	454.31137	801.58615	-1569.92203	184.95615	782.16766	-1574.97467	192.78395	702.07336	-1634.88129	193.45104	739.78996	-1209.54697	174.74873	762.99767	-1267.73331	174.14469	795.30609	-1208.29933	193.95376	836.67282	321.87099	1015.46196	-361.72287	511.38680	1030.86990	-481.28315	623.06183	1091.76003	-258.84460	403.54198	1067.97081	-165.39978	410.12886	1496.99005	-426.29593	474.95964	1570.70831	-315.99060	319.40067	1704.78119	-485.81310	494.25545	1696.64139	-451.46038	392.98492	1708.08075	-331.37001	661.46805	1470.73227	-412.99435	784.57626	1188.67996	-343.83827	705.05478	1166.12976	-311.42460	739.58595	1185.56725	-401.19469	788.25157	948.15453	-445.99709	796.88950	969.13551	-493.72299	753.20549	976.60706	-507.90585	246.91504	1480.43579	-267.59958	158.32120	1148.86520	-333.97747	259.60155	1195.50095	-309.61950	187.74254	1198.34152	-284.25297	241.96522	1069.47128	-490.00759	241.87708	1116.34972	-514.74773	290.64514	1125.33302	-506.30466	673.75931	922.90588	-424.67033	318.10312	872.62489	-229.27713	571.84174	515.45330	-603.54931	639.02180	545.04631	-510.57888	532.34444	502.66048	-496.14063	526.48670	460.99979	-317.15740	470.67162	477.81956	-224.38671	595.91347	501.64032	-236.05900	664.14070	218.88817	-573.79189	637.46880	214.37435	-506.35918	714.56032	224.50138	-529.00055	590.45532	149.46276	-252.07464	649.62753	177.82839	-180.71404	656.07414	179.06687	-253.72120 
80	12.917	-1241.09848	990.94749	701.38046	-1356.81152	996.19102	910.88570	-1510.51147	1069.09286	791.53465	-1413.42255	1056.72234	625.70045	-1218.68668	1442.90985	782.37823	-1309.29733	1520.60791	795.00755	-1091.70570	1571.47461	770.87120	-1228.69431	1616.56799	898.44154	-1267.91237	1631.15448	774.32785	-1402.89383	1389.85977	993.88451	-1498.72269	1100.68115	1019.69543	-1460.62561	1085.68321	962.13829	-1422.96143	1117.38075	1052.91069	-1427.94907	850.77515	1072.94037	-1392.76718	861.05598	1100.77911	-1361.42578	871.21620	1067.81380	-1244.92264	1413.10516	586.88618	-1325.30350	1092.92709	591.22200	-1260.70602	1111.74911	527.90619	-1340.99792	1095.28801	518.10886	-1269.28696	880.61493	507.07333	-1228.69293	887.66678	517.82036	-1236.36833	885.14267	564.06162	-1497.87354	904.28238	895.07919	-1274.98222	916.99669	619.68346	-1488.69385	433.02971	833.33160	-1569.54117	476.54877	823.68286	-1485.65140	463.83171	740.81932	-1169.69986	441.59367	801.98982	-1202.25960	442.15031	720.69382	-1280.60547	447.03259	811.75003	-1566.31104	183.97732	782.67662	-1571.77475	192.69388	702.79045	-1631.46744	193.49672	740.93071	-1183.86131	171.54160	779.14864	-1240.86906	167.42281	813.17360	-1182.35641	192.27108	852.76962	315.40222	1013.08517	-369.84840	500.46036	1027.62955	-496.49456	619.84573	1089.17900	-279.84621	403.74561	1066.93733	-176.95034	401.57639	1493.31100	-441.58306	469.70924	1567.76810	-333.50758	310.56576	1701.01807	-500.66841	486.16421	1692.78030	-469.75155	387.32697	1705.04364	-347.67227	652.88391	1466.13892	-435.01411	778.22121	1185.18097	-365.65670	699.88892	1162.73819	-331.68697	731.94115	1181.82663	-422.62344	777.90459	945.27176	-470.29785	785.12886	966.37589	-517.80403	741.12785	974.26483	-530.59967	242.64507	1478.75916	-278.46540	152.08599	1148.60901	-343.91651	252.52724	1194.67278	-321.15986	181.50730	1198.08540	-294.19199	233.88720	1077.36504	-504.67133	232.36431	1124.88487	-527.64969	280.79119	1134.58939	-519.52454	664.27124	920.45929	-446.26293	315.55668	871.85204	-236.20350	550.59803	516.58890	-625.77717	623.20313	540.94917	-535.50938	516.78501	500.06958	-516.74824	522.80575	459.41265	-322.40089	468.72295	477.31407	-228.47290	593.95584	502.15473	-243.76324	633.53024	217.22544	-617.86114	610.62122	209.64590	-549.37096	686.56311	218.50508	-575.90569	589.75277	149.67015	-252.82354	649.74617	179.76568	-182.95252	654.98871	179.79578	-255.96741 
